HIERARCHY
ROOT Root
{
	OFFSET 0.00000 0.00000 0.00000
	CHANNELS 6 Xposition Yposition Zposition Zrotation Xrotation Yrotation
	JOINT Hip
	{
		OFFSET 0 0 0	
		CHANNELS 3 Zrotation Xrotation Yrotation
		JOINT Tummy
		{
			OFFSET 0 0.04 0	
			CHANNELS 3 Zrotation Xrotation Yrotation
			JOINT ChestBottom
			{
				OFFSET 0 0.194 0	
				CHANNELS 3 Zrotation Xrotation Yrotation
				JOINT ChestTop
				{
					OFFSET 0 0.166 0	
					CHANNELS 3 Zrotation Xrotation Yrotation
					JOINT LeftCollar
					{
						OFFSET 0 0.1 0	
						CHANNELS 3 Zrotation Xrotation Yrotation
						JOINT LeftUpperArm
						{
							OFFSET 0.156 -0.02 0.03	
							CHANNELS 3 Zrotation Xrotation Yrotation
							JOINT LeftForeArm
							{
								OFFSET 0.035 -0.27 -0.01	
								CHANNELS 3 Zrotation Xrotation Yrotation
								JOINT LeftHand
								{
									OFFSET 0.01 -0.27 0.01	
									CHANNELS 3 Zrotation Xrotation Yrotation
									End Site
									{
										OFFSET 0 -0.15 0
									}
								}
							}
						}
					}
					JOINT RightCollar
					{
						OFFSET 0 0.1 0	
						CHANNELS 3 Zrotation Xrotation Yrotation
						JOINT RightUpperArm
						{
							OFFSET -0.156 -0.02 0.03	
							CHANNELS 3 Zrotation Xrotation Yrotation
							JOINT RightForeArm
							{
								OFFSET -0.035 -0.27 -0.01	
								CHANNELS 3 Zrotation Xrotation Yrotation
								JOINT RightHand
								{
									OFFSET -0.01 -0.27 0.01	
									CHANNELS 3 Zrotation Xrotation Yrotation
									End Site
									{
										OFFSET 0 -0.15 0
									}
								}
							}
						}
					}
					JOINT Neck
					{
						OFFSET 0 0.1 0	
						CHANNELS 3 Zrotation Xrotation Yrotation
						JOINT Head
						{
							OFFSET 0 0.127 0.03	
							CHANNELS 3 Zrotation Xrotation Yrotation
							End Site
							{
								OFFSET 0 0.127 0.03
							}
						}
					}
				}
			}
		}
	}
	JOINT LeftHip
	{
		OFFSET 0 0 0	
		CHANNELS 3 Zrotation Xrotation Yrotation
		JOINT LeftThigh
		{
			OFFSET 0.088 -0.06 0	
			CHANNELS 3 Zrotation Xrotation Yrotation
			JOINT LeftLowerLeg
			{
				OFFSET 0 -0.39 0.02	
				CHANNELS 3 Zrotation Xrotation Yrotation
				JOINT LeftFootTop
				{
					OFFSET 0 -0.43 -0.02	
					CHANNELS 3 Zrotation Xrotation Yrotation
					JOINT LeftFootFront
					{
						OFFSET 0 -0.07 0.085	
						CHANNELS 3 Zrotation Xrotation Yrotation
						End Site
						{
							OFFSET 0 -0.005 0.09
						}
					}
				}
				JOINT LeftHeel
				{
					OFFSET 0 -0.43 -0.02	
					CHANNELS 3 Zrotation Xrotation Yrotation
					End Site
					{
						OFFSET 0 -0.075 -0.05
					}
				}
			}
		}
	}
	JOINT RightHip
	{
		OFFSET 0 0 0	
		CHANNELS 3 Zrotation Xrotation Yrotation
		JOINT RightThigh
		{
			OFFSET -0.088 -0.06 0	
			CHANNELS 3 Zrotation Xrotation Yrotation
			JOINT RightLowerLeg
			{
				OFFSET 0 -0.39 0.02	
				CHANNELS 3 Zrotation Xrotation Yrotation
				JOINT RightFootTop
				{
					OFFSET 0 -0.43 -0.02	
					CHANNELS 3 Zrotation Xrotation Yrotation
					JOINT RightFootFront
					{
						OFFSET 0 -0.07 0.085	
						CHANNELS 3 Zrotation Xrotation Yrotation
						End Site
						{
							OFFSET 0 -0.005 0.09
						}
					}
				}
				JOINT RightHeel
				{
					OFFSET 0 -0.43 -0.02	
					CHANNELS 3 Zrotation Xrotation Yrotation
					End Site
					{
						OFFSET 0 -0.075 -0.05
					}
				}
			}
		}
	}
}
MOTION
Frames: 23
Frame Time: 0.025
0 0.955 0 -0 0 -0 -0.16933 -1.8783 2.3713 -0.14383 1.5029 -2.3562 -0.14383 1.5029 -2.3562 -0.12497 1.2621 -1.9794 -0 0 -0 0.70332 -0.29881 -1.4292 1.1566 2.2644 -0.17415 -0.11032 -0.63661 2.1773 -0 0 -0 -0.41325 -0.031266 5.0828 -0.1403 -0.11047 1.1541 0.19819 1.3145 -2.797 -1.9628 5.171 -1.2711 -1.9628 5.171 -1.2711 -0 0 -0 -0 0 -0 -0 0 -0 -0 0 -0 -0 0 -0 -0 0 -0 -0 0 -0 -0 0 -0 -0 0 -0 -0 0 -0 -0 0 -0 -0 0 -0 
0 0.955 0 -0 0 -0 -0.16962 -1.8742 2.3525 -0.13463 1.551 -2.3585 -0.13463 1.551 -2.3585 -0.11737 1.3025 -1.9813 -0 0 -0 0.7091 -0.38709 -1.4918 1.1266 2.2361 -0.087948 -0.10539 -0.64737 2.2017 -0 0 -0 -0.4216 -0.13046 5.1218 -0.060545 -0.10086 1.0111 0.11758 1.3069 -2.6941 -1.9828 5.1202 -1.2541 -1.9828 5.1202 -1.2541 -0 0 -0 -0 0 -0 -0 0 -0 -0 0 -0 -0 0 -0 -0 0 -0 -0 0 -0 -0 0 -0 -0 0 -0 -0 0 -0 -0 0 -0 -0 0 -0 
0 0.955 0 -0 0 -0 -0.16987 -1.8684 2.3263 -0.11846 1.6276 -2.3642 -0.11846 1.6276 -2.3642 -0.10402 1.3669 -1.986 -0 0 -0 0.70911 -0.53919 -1.5725 1.086 2.1983 0.032435 -0.099244 -0.66346 2.2356 -0 0 -0 -0.44318 -0.29155 5.1954 0.05106 -0.093355 0.79837 0.0071207 1.2978 -2.5501 -2.0169 5.0373 -1.2274 -2.0169 5.0373 -1.2274 -0 0 -0 -0 0 -0 -0 0 -0 -0 0 -0 -0 0 -0 -0 0 -0 -0 0 -0 -0 0 -0 -0 0 -0 -0 0 -0 -0 0 -0 -0 0 -0 
0 0.955 0 -0 0 -0 -0.16911 -1.8623 2.299 -0.10607 1.6889 -2.3645 -0.10607 1.6889 -2.3645 -0.09378 1.4184 -1.9863 -0 0 -0 0.71697 -0.6447 -1.6695 1.0443 2.1592 0.15706 -0.095433 -0.68203 2.2716 -0 0 -0 -0.46329 -0.38877 5.2722 0.16874 -0.10409 0.56083 -0.10505 1.2902 -2.3994 -2.0443 4.973 -1.2067 -2.0443 4.973 -1.2067 -0 0 -0 -0 0 -0 -0 0 -0 -0 0 -0 -0 0 -0 -0 0 -0 -0 0 -0 -0 0 -0 -0 0 -0 -0 0 -0 -0 0 -0 -0 0 -0 
0 0.955 0 -0 0 -0 -0.16605 -1.8547 2.2737 -0.10037 1.7385 -2.361 -0.10037 1.7385 -2.361 -0.089124 1.4601 -1.9833 -0 0 -0 0.74098 -0.70631 -1.7526 1 2.1099 0.27549 -0.098358 -0.70456 2.3152 -0 0 -0 -0.47412 -0.438 5.3361 0.28531 -0.13073 0.32057 -0.21097 1.2851 -2.2471 -2.0502 4.9069 -1.1934 -2.0502 4.9069 -1.1934 -0 0 -0 -0 0 -0 -0 0 -0 -0 0 -0 -0 0 -0 -0 0 -0 -0 0 -0 -0 0 -0 -0 0 -0 -0 0 -0 -0 0 -0 -0 0 -0 
0 0.955 0 -0 0 -0 -0.16203 -1.8413 2.2538 -0.098635 1.7874 -2.3599 -0.098635 1.7874 -2.3599 -0.087799 1.5012 -1.9824 -0 0 -0 0.77458 -0.7363 -1.775 0.95271 2.0281 0.39136 -0.11022 -0.72785 2.3799 -0 0 -0 -0.47479 -0.51558 5.3572 0.39369 -0.13542 0.1141 -0.29679 1.2962 -2.108 -2.0291 4.8047 -1.1818 -2.0291 4.8047 -1.1818 -0 0 -0 -0 0 -0 -0 0 -0 -0 0 -0 -0 0 -0 -0 0 -0 -0 0 -0 -0 0 -0 -0 0 -0 -0 0 -0 -0 0 -0 -0 0 -0 
0 0.955 0 -0 0 -0 -0.16014 -1.818 2.2384 -0.097266 1.8331 -2.3602 -0.097266 1.8331 -2.3602 -0.086776 1.5395 -1.9827 -0 0 -0 0.79741 -0.71549 -1.7638 0.9115 1.9018 0.55174 -0.1319 -0.7275 2.4688 -0 0 -0 -0.47491 -0.60547 5.3371 0.4902 -0.1375 -0.06656 -0.35228 1.3327 -2.0015 -1.9796 4.6528 -1.1739 -1.9796 4.6528 -1.1739 -0 0 -0 -0 0 -0 -0 0 -0 -0 0 -0 -0 0 -0 -0 0 -0 -0 0 -0 -0 0 -0 -0 0 -0 -0 0 -0 -0 0 -0 -0 0 -0 
0 0.955 0 -0 0 -0 -0.16061 -1.7888 2.2259 -0.090615 1.8765 -2.3611 -0.090615 1.8765 -2.3611 -0.081311 1.576 -1.9834 -0 0 -0 0.78837 -0.65876 -1.7477 0.87376 1.7616 0.8136 -0.16444 -0.68402 2.5724 -0 0 -0 -0.49476 -0.68325 5.3048 0.57975 -0.16107 -0.25172 -0.3974 1.3608 -1.8873 -1.9003 4.4355 -1.1699 -1.9003 4.4355 -1.1699 -0 0 -0 -0 0 -0 -0 0 -0 -0 0 -0 -0 0 -0 -0 0 -0 -0 0 -0 -0 0 -0 -0 0 -0 -0 0 -0 -0 0 -0 -0 0 -0 
0 0.955 0 -0 0 -0 -0.16113 -1.7604 2.2199 -0.07621 1.9221 -2.3648 -0.07621 1.9221 -2.3648 -0.069347 1.6144 -1.9865 -0 0 -0 0.75569 -0.63273 -1.7147 0.82554 1.6977 1.174 -0.23275 -0.58836 2.7188 -0 0 -0 -0.53774 -0.74073 5.2766 0.65987 -0.21219 -0.43856 -0.44223 1.3862 -1.7595 -1.7858 4.1422 -1.1672 -1.7858 4.1422 -1.1672 -0 0 -0 -0 0 -0 -0 0 -0 -0 0 -0 -0 0 -0 -0 0 -0 -0 0 -0 -0 0 -0 -0 0 -0 -0 0 -0 -0 0 -0 -0 0 -0 
0 0.955 0 -0 0 -0 -0.1614 -1.7358 2.2233 -0.059579 1.97 -2.3745 -0.059579 1.97 -2.3745 -0.055532 1.6546 -1.9946 -0 0 -0 0.71139 -0.67776 -1.6927 0.79208 1.7688 1.6084 -0.46352 -0.39134 3.0383 -0 0 -0 -0.58293 -0.77213 5.2585 0.72453 -0.28172 -0.59365 -0.49664 1.4158 -1.6357 -1.631 3.7839 -1.1548 -1.631 3.7839 -1.1548 -0 0 -0 -0 0 -0 -0 0 -0 -0 0 -0 -0 0 -0 -0 0 -0 -0 0 -0 -0 0 -0 -0 0 -0 -0 0 -0 -0 0 -0 -0 0 -0 
0 0.955 0 -0 0 -0 -0.16094 -1.7143 2.234 -0.051758 2.0132 -2.388 -0.051758 2.0132 -2.388 -0.049116 1.691 -2.0059 -0 0 -0 0.65668 -0.7405 -1.7047 0.7873 1.9336 2.1178 -0.91881 -0.10028 3.5283 -0 0 -0 -0.60318 -0.78584 5.2792 0.7692 -0.33907 -0.72261 -0.56618 1.4389 -1.5216 -1.4355 3.3956 -1.1243 -1.4355 3.3956 -1.1243 -0 0 -0 -0 0 -0 -0 0 -0 -0 0 -0 -0 0 -0 -0 0 -0 -0 0 -0 -0 0 -0 -0 0 -0 -0 0 -0 -0 0 -0 -0 0 -0 
0 0.955 0 -0 0 -0 -0.15845 -1.6943 2.2485 -0.054144 2.0476 -2.4 -0.054144 2.0476 -2.4 -0.051245 1.7198 -2.016 -0 0 -0 0.59743 -0.75939 -1.6927 0.77096 2.1067 2.6824 -1.4373 0.17462 4.0343 -0 0 -0 -0.60127 -0.79678 5.3641 0.7865 -0.36811 -0.85423 -0.63261 1.4571 -1.4396 -1.2154 3.0138 -1.08 -1.2154 3.0138 -1.08 -0 0 -0 -0 0 -0 -0 0 -0 -0 0 -0 -0 0 -0 -0 0 -0 -0 0 -0 -0 0 -0 -0 0 -0 -0 0 -0 -0 0 -0 -0 0 -0 
0 0.955 0 -0 0 -0 -0.15612 -1.6751 2.2664 -0.06428 2.0749 -2.4104 -0.06428 2.0749 -2.4104 -0.059861 1.7428 -2.0248 -0 0 -0 0.55229 -0.74097 -1.6627 0.72767 2.2416 3.2901 -1.8894 0.348 4.5276 -0 0 -0 -0.59039 -0.81165 5.4942 0.78208 -0.37801 -0.96888 -0.65593 1.4857 -1.4267 -0.9879 2.6582 -1.0257 -0.9879 2.6582 -1.0257 -0 0 -0 -0 0 -0 -0 0 -0 -0 0 -0 -0 0 -0 -0 0 -0 -0 0 -0 -0 0 -0 -0 0 -0 -0 0 -0 -0 0 -0 -0 0 -0 
0 0.955 0 -0 0 -0 -0.15544 -1.6593 2.288 -0.081688 2.0997 -2.4205 -0.081688 2.0997 -2.4205 -0.074578 1.7636 -2.0332 -0 0 -0 0.53498 -0.69458 -1.6352 0.68135 2.3066 3.8835 -2.2747 0.38927 5.0905 -0 0 -0 -0.5713 -0.84103 5.6205 0.76207 -0.37544 -1.0175 -0.58373 1.5478 -1.5056 -0.76484 2.3367 -0.96421 -0.76484 2.3367 -0.96421 -0 0 -0 -0 0 -0 -0 0 -0 -0 0 -0 -0 0 -0 -0 0 -0 -0 0 -0 -0 0 -0 -0 0 -0 -0 0 -0 -0 0 -0 -0 0 -0 
0 0.955 0 -0 0 -0 -0.15558 -1.6498 2.3137 -0.10532 2.1235 -2.4289 -0.10532 2.1235 -2.4289 -0.094518 1.7834 -2.0404 -0 0 -0 0.56112 -0.63577 -1.5985 0.62961 2.3127 4.4062 -2.5788 0.31899 5.6628 -0 0 -0 -0.53544 -0.88318 5.6925 0.71301 -0.37088 -0.9626 -0.3889 1.6437 -1.6915 -0.5574 2.0571 -0.90311 -0.5574 2.0571 -0.90311 -0 0 -0 -0 0 -0 -0 0 -0 -0 0 -0 -0 0 -0 -0 0 -0 -0 0 -0 -0 0 -0 -0 0 -0 -0 0 -0 -0 0 -0 -0 0 -0 
0 0.955 0 -0 0 -0 -0.15564 -1.649 2.3443 -0.13099 2.1435 -2.4362 -0.13099 2.1435 -2.4362 -0.11616 1.8002 -2.0466 -0 0 -0 0.61071 -0.58781 -1.5094 0.5739 2.3136 4.8385 -2.7672 0.19758 6.1324 -0 0 -0 -0.48531 -0.91804 5.7025 0.62762 -0.38006 -0.82297 -0.12356 1.7042 -1.9907 -0.37841 1.828 -0.84931 -0.37841 1.828 -0.84931 -0 0 -0 -0 0 -0 -0 0 -0 -0 0 -0 -0 0 -0 -0 0 -0 -0 0 -0 -0 0 -0 -0 0 -0 -0 0 -0 -0 0 -0 -0 0 -0 
0 0.955 0 -0 0 -0 -0.15667 -1.6591 2.3799 -0.15495 2.1528 -2.4446 -0.15495 2.1528 -2.4446 -0.13633 1.808 -2.0537 -0 0 -0 0.63737 -0.53613 -1.3433 0.53874 2.3645 5.2245 -2.8469 0.027306 6.4956 -0 0 -0 -0.42761 -0.91535 5.6891 0.51624 -0.40232 -0.67317 0.16886 1.6309 -2.4463 -0.23922 1.6604 -0.80635 -0.23923 1.6604 -0.80635 -0 0 -0 -0 0 -0 -0 0 -0 -0 0 -0 -0 0 -0 -0 0 -0 -0 0 -0 -0 0 -0 -0 0 -0 -0 0 -0 -0 0 -0 -0 0 -0 
0 0.955 0 -0 0 -0 -0.16225 -1.6793 2.4181 -0.1735 2.1462 -2.4577 -0.1735 2.1462 -2.4577 -0.15192 1.8024 -2.0648 -0 0 -0 0.59886 -0.457 -1.1092 0.55991 2.5338 5.5681 -2.7415 -0.42985 6.9201 -0 0 -0 -0.37398 -0.85795 5.7061 0.39112 -0.41733 -0.5927 0.57235 1.3649 -3.1813 -0.14894 1.5573 -0.77108 -0.14894 1.5573 -0.77108 -0 0 -0 -0 0 -0 -0 0 -0 -0 0 -0 -0 0 -0 -0 0 -0 -0 0 -0 -0 0 -0 -0 0 -0 -0 0 -0 -0 0 -0 -0 0 -0 
0 0.955 0 -0 0 -0 -0.17239 -1.7025 2.4564 -0.18017 2.1281 -2.4771 -0.18017 2.1281 -2.4771 -0.15752 1.7871 -2.081 -0 0 -0 0.45792 -0.34749 -0.87779 0.68513 2.8396 5.5524 -1.9771 -1.614 7.703 -0 0 -0 -0.35591 -0.77458 5.7889 0.25792 -0.39399 -0.64813 1.2445 0.85149 -4.2349 -0.1198 1.4894 -0.74062 -0.1198 1.4894 -0.74062 -0 0 -0 -0 0 -0 -0 0 -0 -0 0 -0 -0 0 -0 -0 0 -0 -0 0 -0 -0 0 -0 -0 0 -0 -0 0 -0 -0 0 -0 -0 0 -0 
0 0.955 0 -0 0 -0 -0.18273 -1.7206 2.4914 -0.17478 2.1045 -2.4968 -0.17478 2.1045 -2.4968 -0.15297 1.7673 -2.0976 -0 0 -0 0.24307 -0.19835 -0.82204 0.95842 3.24 4.7297 0.12087 -3.7564 8.7301 -0 0 -0 -0.38591 -0.69501 5.923 0.12254 -0.30675 -0.88989 2.2977 0.048913 -5.6234 -0.14717 1.4317 -0.71898 -0.14717 1.4317 -0.71898 -0 0 -0 -0 0 -0 -0 0 -0 -0 0 -0 -0 0 -0 -0 0 -0 -0 0 -0 -0 0 -0 -0 0 -0 -0 0 -0 -0 0 -0 -0 0 -0 
0 0.955 0 -0 0 -0 -0.18987 -1.7296 2.5301 -0.16672 2.0738 -2.5124 -0.16672 2.0738 -2.5124 -0.14615 1.7416 -2.1107 -0 0 -0 0.07646 0.037571 -1.1386 1.4389 3.7357 3.0969 3.3457 -6.5915 9.7168 -0 0 -0 -0.44791 -0.59757 6.0707 0.016651 -0.17858 -1.3182 3.8058 -1.0104 -7.6127 -0.19111 1.4159 -0.70842 -0.19111 1.4159 -0.70842 -0 0 -0 -0 0 -0 -0 0 -0 -0 0 -0 -0 0 -0 -0 0 -0 -0 0 -0 -0 0 -0 -0 0 -0 -0 0 -0 -0 0 -0 -0 0 -0 
0 0.955 0 -0 0 -0 -0.19693 -1.7328 2.5795 -0.168 2.0298 -2.523 -0.168 2.0298 -2.523 -0.14712 1.7046 -2.1196 -0 0 -0 0.082139 0.41213 -1.9158 2.0961 4.2518 0.98671 6.765 -9.4118 11.066 -0 0 -0 -0.52669 -0.43282 6.1914 0.031595 -0.08417 -1.8936 5.6347 -2.2102 -10.344 -0.22063 1.446 -0.70285 -0.22063 1.446 -0.70285 -0 0 -0 -0 0 -0 -0 0 -0 -0 0 -0 -0 0 -0 -0 0 -0 -0 0 -0 -0 0 -0 -0 0 -0 -0 0 -0 -0 0 -0 -0 0 -0 
0 0.955 0 -0 0 -0 -0.21071 -1.7376 2.6309 -0.17827 1.9843 -2.5297 -0.17827 1.9843 -2.5297 -0.15563 1.6663 -2.1252 -0 0 -0 0.35807 0.92196 -3.1528 2.5755 4.5744 -0.82796 9.6443 -11.611 13.22 -0 0 -0 -0.66333 -0.22867 6.2649 0.27017 -0.081176 -2.5474 7.3686 -3.4564 -13.515 -0.23589 1.489 -0.69009 -0.23589 1.489 -0.69009 -0 0 -0 -0 0 -0 -0 0 -0 -0 0 -0 -0 0 -0 -0 0 -0 -0 0 -0 -0 0 -0 -0 0 -0 -0 0 -0 -0 0 -0 -0 0 -0 
